# xmcd
#
# Track frame offsets:
#	150
#	11653
#	21604
#	39226
#	57290
#	79102
#	93040
#	107070
#	123683
#	141350
#
# Disc length: 2071 seconds
#
# Revision: 1
# Processed by: cddbd v1.5.2PL0 Copyright (c) Steve Scherf et al.
# Submitted via: EasyCDDAExtractor 11.9.9.666
#
DISCID=8108150a
DTITLE=Jessie Rae - A Tribute To Jill
DYEAR=2000
DGENRE=Blues/Roots/Pop
TTITLE0=Bittersweet
TTITLE1=Maria
TTITLE2=Something I Said
TTITLE3=Laced With Sugar
TTITLE4=It's A Pity
TTITLE5=Safe and Warm
TTITLE6=Left Twice
TTITLE7=Walk On
TTITLE8=Come To Me
TTITLE9=Whatcha Gonna Do
EXTD=
EXTT0=
EXTT1=
EXTT2=
EXTT3=
EXTT4=
EXTT5=
EXTT6=
EXTT7=
EXTT8=
EXTT9=
PLAYORDER=
